<svg width="23" height="23" viewBox="0 0 23 23" fill="none" xmlns="http://www.w3.org/2000/svg">
<g clip-path="url(#clip0_1231_679)">
<path d="M18.9661 6.28418H9.427C8.07434 6.28418 6.97778 7.38073 6.97778 8.7334V18.2725C6.97778 19.6251 8.07434 20.7217 9.427 20.7217H18.9661C20.3187 20.7217 21.4153 19.6251 21.4153 18.2725V8.7334C21.4153 7.38073 20.3187 6.28418 18.9661 6.28418Z" stroke="white" stroke-width="1.7" stroke-linejoin="round"/>
<path d="M17.9563 6.28418L17.9778 5.25293C17.976 4.61531 17.7219 4.00432 17.271 3.55346C16.8201 3.10259 16.2092 2.84849 15.5715 2.84668H6.29028C5.5616 2.84883 4.86338 3.13926 4.34812 3.65452C3.83286 4.16977 3.54244 4.868 3.54028 5.59668V14.8779C3.5421 15.5155 3.79619 16.1265 4.24706 16.5774C4.69793 17.0283 5.30891 17.2824 5.94653 17.2842H6.97778" stroke="white" stroke-width="1.7" stroke-linecap="round" stroke-linejoin="round"/>
</g>
<defs>
<clipPath id="clip0_1231_679">
<rect width="22" height="22" fill="white" transform="translate(0.5 0.5)"/>
</clipPath>
</defs>
</svg>
