<svg width="25" height="24" viewBox="0 0 25 24" fill="none" xmlns="http://www.w3.org/2000/svg">
<path d="M12.341 14.975C12.2073 14.975 12.0779 14.95 11.9529 14.9C11.8272 14.85 11.7225 14.7833 11.639 14.7L7.02579 10.1C6.84193 9.91667 6.75 9.68334 6.75 9.4C6.75 9.11667 6.84193 8.88334 7.02579 8.7C7.20965 8.51667 7.44365 8.425 7.72779 8.425C8.01194 8.425 8.24594 8.51667 8.4298 8.7L12.341 12.6L16.2521 8.7C16.436 8.51667 16.67 8.425 16.9542 8.425C17.2383 8.425 17.4723 8.51667 17.6562 8.7C17.84 8.88334 17.9319 9.11667 17.9319 9.4C17.9319 9.68334 17.84 9.91667 17.6562 10.1L13.043 14.7C12.9427 14.8 12.834 14.8707 12.717 14.912C12.6 14.954 12.4747 14.975 12.341 14.975Z" fill="#A7A8A9"/>
</svg>
