<?xml version="1.0"?>
<svg width="345" height="342" xmlns="http://www.w3.org/2000/svg" xmlns:svg="http://www.w3.org/2000/svg">
 <g class="layer">
  <title>Layer 1</title>
  <g filter="url(#filter0_d_1222_1581)" id="svg_1">
   <rect fill="white" height="332" id="svg_2" rx="45" width="335" x="5" y="6"/>
  </g>
  <rect fill="black" height="28" id="svg_3" rx="7" width="29" x="261" y="55"/>
  <rect height="59" id="svg_4" rx="18.5" stroke="black" stroke-width="7" width="62" x="244.5" y="39.5"/>
  <rect fill="black" height="28" id="svg_5" rx="7" width="29" x="55" y="55"/>
  <rect height="59" id="svg_6" rx="18.5" stroke="black" stroke-width="7" width="62" x="38.5" y="39.5"/>
  <rect fill="black" height="28" id="svg_7" rx="7" width="29" x="55" y="261"/>
  <rect height="59" id="svg_8" rx="18.5" stroke="black" stroke-width="7" width="62" x="38.5" y="245.5"/>
  <circle cx="115" cy="38" fill="black" id="svg_9" r="3"/>
  <circle cx="125" cy="48" fill="black" id="svg_10" r="3"/>
  <circle cx="134" cy="38" fill="black" id="svg_11" r="3"/>
  <circle cx="143" cy="38" fill="black" id="svg_12" r="3"/>
  <circle cx="153" cy="38" fill="black" id="svg_13" r="3"/>
  <circle cx="125" cy="57" fill="black" id="svg_14" r="3"/>
  <circle cx="134" cy="47" fill="black" id="svg_15" r="3"/>
  <circle cx="143" cy="47" fill="black" id="svg_16" r="3"/>
  <circle cx="153" cy="47" fill="black" id="svg_17" r="3"/>
  <circle cx="163" cy="48" fill="black" id="svg_18" r="3"/>
  <circle cx="172" cy="38" fill="black" id="svg_19" r="3"/>
  <circle cx="172" cy="57" fill="black" id="svg_20" r="3"/>
  <circle cx="192" cy="57" fill="black" id="svg_21" r="3"/>
  <circle cx="182" cy="57" fill="black" id="svg_22" r="3"/>
  <circle cx="182" cy="87" fill="black" id="svg_23" r="3"/>
  <circle cx="182" cy="107" fill="black" id="svg_24" r="3"/>
  <circle cx="182" cy="117" fill="black" id="svg_25" r="3"/>
  <circle cx="182" cy="48" fill="black" id="svg_26" r="3"/>
  <circle cx="191" cy="48" fill="black" id="svg_27" r="3"/>
  <circle cx="200" cy="48" fill="black" id="svg_28" r="3"/>
  <circle cx="200" cy="38" fill="black" id="svg_29" r="3"/>
  <circle cx="210" cy="38" fill="black" id="svg_30" r="3"/>
  <circle cx="220" cy="38" fill="black" id="svg_31" r="3"/>
  <circle cx="230" cy="38" fill="black" id="svg_32" r="3"/>
  <circle cx="200" cy="77" fill="black" id="svg_33" r="3"/>
  <circle cx="210" cy="77" fill="black" id="svg_34" r="3"/>
  <circle cx="210" cy="57" fill="black" id="svg_35" r="3"/>
  <circle cx="220" cy="57" fill="black" id="svg_36" r="3"/>
  <circle cx="220" cy="67" fill="black" id="svg_37" r="3"/>
  <circle cx="229" cy="57" fill="black" id="svg_38" r="3"/>
  <circle cx="172" cy="67" fill="black" id="svg_39" r="3"/>
  <circle cx="192" cy="67" fill="black" id="svg_40" r="3"/>
  <circle cx="172" cy="77" fill="black" id="svg_41" r="3"/>
  <circle cx="192" cy="77" fill="black" id="svg_42" r="3"/>
  <circle cx="163" cy="87" fill="black" id="svg_43" r="3"/>
  <circle cx="192" cy="87" fill="black" id="svg_44" r="3"/>
  <circle cx="172" cy="97" fill="black" id="svg_45" r="3"/>
  <circle cx="192" cy="97" fill="black" id="svg_46" r="3"/>
  <circle cx="172" cy="107" fill="black" id="svg_47" r="3"/>
  <circle cx="192" cy="107" fill="black" id="svg_48" r="3"/>
  <circle cx="200" cy="107" fill="black" id="svg_49" r="3"/>
  <circle cx="172" cy="117" fill="black" id="svg_50" r="3"/>
  <circle cx="192" cy="117" fill="black" id="svg_51" r="3"/>
  <circle cx="200" cy="117" fill="black" id="svg_52" r="3"/>
  <circle cx="210" cy="117" fill="black" id="svg_53" r="3"/>
  <circle cx="210" cy="96" fill="black" id="svg_54" r="3"/>
  <circle cx="210" cy="77" fill="black" id="svg_55" r="3"/>
  <circle cx="220" cy="86" fill="black" id="svg_56" r="3"/>
  <circle cx="229" cy="96" fill="black" id="svg_57" r="3"/>
  <circle cx="229" cy="105" fill="black" id="svg_58" r="3"/>
  <circle cx="229" cy="114" fill="black" id="svg_59" r="3"/>
  <circle cx="239" cy="114" fill="black" id="svg_60" r="3"/>
  <circle cx="258" cy="114" fill="black" id="svg_61" r="3"/>
  <circle cx="268" cy="114" fill="black" id="svg_62" r="3"/>
  <circle cx="278" cy="114" fill="black" id="svg_63" r="3"/>
  <circle cx="278" cy="124" fill="black" id="svg_64" r="3"/>
  <circle cx="278" cy="134" fill="black" id="svg_65" r="3"/>
  <circle cx="268" cy="134" fill="black" id="svg_66" r="3"/>
  <circle cx="298" cy="134" fill="black" id="svg_67" r="3"/>
  <circle cx="308" cy="134" fill="black" id="svg_68" r="3"/>
  <circle cx="308" cy="144" fill="black" id="svg_69" r="3"/>
  <circle cx="308" cy="154" fill="black" id="svg_70" r="3"/>
  <circle cx="285" cy="154" fill="black" id="svg_71" r="3"/>
  <circle cx="295" cy="162" fill="black" id="svg_72" r="3"/>
  <circle cx="295" cy="171" fill="black" id="svg_73" r="3"/>
  <circle cx="295" cy="181" fill="black" id="svg_74" r="3"/>
  <circle cx="305" cy="181" fill="black" id="svg_75" r="3"/>
  <circle cx="295" cy="191" fill="black" id="svg_76" r="3"/>
  <circle cx="295" cy="201" fill="black" id="svg_77" r="3"/>
  <circle cx="286" cy="201" fill="black" id="svg_78" r="3"/>
  <circle cx="277" cy="201" fill="black" id="svg_79" r="3"/>
  <circle cx="277" cy="162" fill="black" id="svg_80" r="3"/>
  <circle cx="267" cy="171" fill="black" id="svg_81" r="3"/>
  <circle cx="286" cy="211" fill="black" id="svg_82" r="3"/>
  <circle cx="277" cy="211" fill="black" id="svg_83" r="3"/>
  <circle cx="277" cy="181" fill="black" id="svg_84" r="3"/>
  <circle cx="287" cy="181" fill="black" id="svg_85" r="3"/>
  <circle cx="286" cy="221" fill="black" id="svg_86" r="3"/>
  <circle cx="305" cy="221" fill="black" id="svg_87" r="3"/>
  <circle cx="305" cy="230" fill="black" id="svg_88" r="3"/>
  <circle cx="305" cy="239" fill="black" id="svg_89" r="3"/>
  <circle cx="296" cy="239" fill="black" id="svg_90" r="3"/>
  <circle cx="296" cy="248" fill="black" id="svg_91" r="3"/>
  <circle cx="296" cy="257" fill="black" id="svg_92" r="3"/>
  <circle cx="296" cy="267" fill="black" id="svg_93" r="3"/>
  <circle cx="306" cy="257" fill="black" id="svg_94" r="3"/>
  <circle cx="286" cy="257" fill="black" id="svg_95" r="3"/>
  <circle cx="277" cy="221" fill="black" id="svg_96" r="3"/>
  <circle cx="258" cy="221" fill="black" id="svg_97" r="3"/>
  <circle cx="258" cy="209" fill="black" id="svg_98" r="3"/>
  <circle cx="267" cy="209" fill="black" id="svg_99" r="3"/>
  <circle cx="277" cy="191" fill="black" id="svg_100" r="3"/>
  <circle cx="298" cy="144" fill="black" id="svg_101" r="3"/>
  <circle cx="308" cy="124" fill="black" id="svg_102" r="3"/>
  <circle cx="308" cy="114" fill="black" id="svg_103" r="3"/>
  <circle cx="288" cy="114" fill="black" id="svg_104" r="3"/>
  <circle cx="288" cy="124" fill="black" id="svg_105" r="3"/>
  <circle cx="288" cy="134" fill="black" id="svg_106" r="3"/>
  <circle cx="239" cy="124" fill="black" id="svg_107" r="3"/>
  <circle cx="239" cy="133" fill="black" id="svg_108" r="3"/>
  <circle cx="229" cy="133" fill="black" id="svg_109" r="3"/>
  <circle cx="229" cy="143" fill="black" id="svg_110" r="3"/>
  <circle cx="229" cy="152" fill="black" id="svg_111" r="3"/>
  <circle cx="258" cy="152" fill="black" id="svg_112" r="3"/>
  <circle cx="258" cy="162" fill="black" id="svg_113" r="3"/>
  <circle cx="220" cy="143" fill="black" id="svg_114" r="3"/>
  <circle cx="220" cy="152" fill="black" id="svg_115" r="3"/>
  <circle cx="249" cy="152" fill="black" id="svg_116" r="3"/>
  <circle cx="249" cy="181" fill="black" id="svg_117" r="3"/>
  <circle cx="249" cy="162" fill="black" id="svg_118" r="3"/>
  <circle cx="249" cy="200" fill="black" id="svg_119" r="3"/>
  <circle cx="239" cy="200" fill="black" id="svg_120" r="3"/>
  <circle cx="239" cy="191" fill="black" id="svg_121" r="3"/>
  <circle cx="239" cy="181" fill="black" id="svg_122" r="3"/>
  <circle cx="229" cy="181" fill="black" id="svg_123" r="3"/>
  <circle cx="220" cy="181" fill="black" id="svg_124" r="3"/>
  <circle cx="220" cy="191" fill="black" id="svg_125" r="3"/>
  <circle cx="220" cy="209" fill="black" id="svg_126" r="3"/>
  <circle cx="220" cy="219" fill="black" id="svg_127" r="3"/>
  <circle cx="239" cy="219" fill="black" id="svg_128" r="3"/>
  <circle cx="239" cy="229" fill="black" id="svg_129" r="3"/>
  <circle cx="258" cy="229" fill="black" id="svg_130" r="3"/>
  <circle cx="277" cy="229" fill="black" id="svg_131" r="3"/>
  <circle cx="277" cy="238" fill="black" id="svg_132" r="3"/>
  <circle cx="229" cy="229" fill="black" id="svg_133" r="3"/>
  <circle cx="229" cy="239" fill="black" id="svg_134" r="3"/>
  <circle cx="220" cy="239" fill="black" id="svg_135" r="3"/>
  <circle cx="210" cy="248" fill="black" id="svg_136" r="3"/>
  <circle cx="201" cy="238" fill="black" id="svg_137" r="3"/>
  <circle cx="192" cy="238" fill="black" id="svg_138" r="3"/>
  <circle cx="192" cy="247" fill="black" id="svg_139" r="3"/>
  <circle cx="192" cy="257" fill="black" id="svg_140" r="3"/>
  <circle cx="201" cy="267" fill="black" id="svg_141" r="3"/>
  <circle cx="192" cy="286" fill="black" id="svg_142" r="3"/>
  <circle cx="192" cy="296" fill="black" id="svg_143" r="3"/>
  <circle cx="182" cy="296" fill="black" id="svg_144" r="3"/>
  <circle cx="172" cy="286" fill="black" id="svg_145" r="3"/>
  <circle cx="192" cy="306" fill="black" id="svg_146" r="3"/>
  <circle cx="201" cy="306" fill="black" id="svg_147" r="3"/>
  <circle cx="172" cy="267" fill="black" id="svg_148" r="3"/>
  <circle cx="153" cy="286" fill="black" id="svg_149" r="3"/>
  <circle cx="153" cy="295" fill="black" id="svg_150" r="3"/>
  <circle cx="163" cy="295" fill="black" id="svg_151" r="3"/>
  <circle cx="182" cy="238" fill="black" id="svg_152" r="3"/>
  <circle cx="182" cy="247" fill="black" id="svg_153" r="3"/>
  <circle cx="172" cy="238" fill="black" id="svg_154" r="3"/>
  <circle cx="172" cy="229" fill="black" id="svg_155" r="3"/>
  <circle cx="182" cy="219" fill="black" id="svg_156" r="3"/>
  <circle cx="163" cy="219" fill="black" id="svg_157" r="3"/>
  <circle cx="153" cy="210" fill="black" id="svg_158" r="3"/>
  <circle cx="144" cy="200" fill="black" id="svg_159" r="3"/>
  <circle cx="134" cy="210" fill="black" id="svg_160" r="3"/>
  <circle cx="115" cy="229" fill="black" id="svg_161" r="3"/>
  <circle cx="115" cy="219" fill="black" id="svg_162" r="3"/>
  <circle cx="115" cy="210" fill="black" id="svg_163" r="3"/>
  <circle cx="115" cy="200" fill="black" id="svg_164" r="3"/>
  <circle cx="105" cy="210" fill="black" id="svg_165" r="3"/>
  <circle cx="95" cy="210" fill="black" id="svg_166" r="3"/>
  <circle cx="85" cy="210" fill="black" id="svg_167" r="3"/>
  <circle cx="85" cy="210" fill="black" id="svg_168" r="3"/>
  <circle cx="85" cy="219" fill="black" id="svg_169" r="3"/>
  <circle cx="67" cy="210" fill="black" id="svg_170" r="3"/>
  <circle cx="77" cy="200" fill="black" id="svg_171" r="3"/>
  <circle cx="96" cy="190" fill="black" id="svg_172" r="3"/>
  <circle cx="107" cy="190" fill="black" id="svg_173" r="3"/>
  <circle cx="125" cy="181" fill="black" id="svg_174" r="3"/>
  <circle cx="115" cy="172" fill="black" id="svg_175" r="3"/>
  <circle cx="125" cy="162" fill="black" id="svg_176" r="3"/>
  <circle cx="125" cy="153" fill="black" id="svg_177" r="3"/>
  <circle cx="115" cy="152" fill="black" id="svg_178" r="3"/>
  <circle cx="115" cy="143" fill="black" id="svg_179" r="3"/>
  <circle cx="115" cy="124" fill="black" id="svg_180" r="3"/>
  <circle cx="105" cy="114" fill="black" id="svg_181" r="3"/>
  <circle cx="96" cy="114" fill="black" id="svg_182" r="3"/>
  <circle cx="87" cy="114" fill="black" id="svg_183" r="3"/>
  <circle cx="77" cy="114" fill="black" id="svg_184" r="3"/>
  <circle cx="67" cy="114" fill="black" id="svg_185" r="3"/>
  <circle cx="57" cy="114" fill="black" id="svg_186" r="3"/>
  <circle cx="48" cy="124" fill="black" id="svg_187" r="3"/>
  <circle cx="67" cy="124" fill="black" id="svg_188" r="3"/>
  <circle cx="105" cy="143" fill="black" id="svg_189" r="3"/>
  <circle cx="105" cy="162" fill="black" id="svg_190" r="3"/>
  <circle cx="87" cy="162" fill="black" id="svg_191" r="3"/>
  <circle cx="96" cy="152" fill="black" id="svg_192" r="3"/>
  <circle cx="96" cy="171" fill="black" id="svg_193" r="3"/>
  <circle cx="85" cy="181" fill="black" id="svg_194" r="3"/>
  <circle cx="58" cy="191" fill="black" id="svg_195" r="3"/>
  <circle cx="39" cy="200" fill="black" id="svg_196" r="3"/>
  <circle cx="39" cy="191" fill="black" id="svg_197" r="3"/>
  <circle cx="39" cy="181" fill="black" id="svg_198" r="3"/>
  <circle cx="39" cy="163" fill="black" id="svg_199" r="3"/>
  <circle cx="39" cy="153" fill="black" id="svg_200" r="3"/>
  <circle cx="48" cy="153" fill="black" id="svg_201" r="3"/>
  <circle cx="58" cy="143" fill="black" id="svg_202" r="3"/>
  <circle cx="58" cy="133" fill="black" id="svg_203" r="3"/>
  <circle cx="67" cy="133" fill="black" id="svg_204" r="3"/>
  <circle cx="77" cy="133" fill="black" id="svg_205" r="3"/>
  <circle cx="86" cy="133" fill="black" id="svg_206" r="3"/>
  <circle cx="96" cy="133" fill="black" id="svg_207" r="3"/>
  <circle cx="39" cy="143" fill="black" id="svg_208" r="3"/>
  <circle cx="48" cy="228" fill="black" id="svg_209" r="3"/>
  <circle cx="57" cy="210" fill="black" id="svg_210" r="3"/>
  <circle cx="67" cy="219" fill="black" id="svg_211" r="3"/>
  <circle cx="67" cy="228" fill="black" id="svg_212" r="3"/>
  <circle cx="95" cy="229" fill="black" id="svg_213" r="3"/>
  <circle cx="153" cy="229" fill="black" id="svg_214" r="3"/>
  <circle cx="134" cy="238" fill="black" id="svg_215" r="3"/>
  <circle cx="125" cy="238" fill="black" id="svg_216" r="3"/>
  <circle cx="134" cy="229" fill="black" id="svg_217" r="3"/>
  <circle cx="153" cy="229" fill="black" id="svg_218" r="3"/>
  <circle cx="153" cy="257" fill="black" id="svg_219" r="3"/>
  <circle cx="172" cy="267" fill="black" id="svg_220" r="3"/>
  <circle cx="172" cy="286" fill="black" id="svg_221" r="3"/>
  <circle cx="153" cy="286" fill="black" id="svg_222" r="3"/>
  <circle cx="143" cy="277" fill="black" id="svg_223" r="3"/>
  <circle cx="143" cy="267" fill="black" id="svg_224" r="3"/>
  <circle cx="143" cy="257" fill="black" id="svg_225" r="3"/>
  <circle cx="135" cy="257" fill="black" id="svg_226" r="3"/>
  <circle cx="135" cy="267" fill="black" id="svg_227" r="3"/>
  <circle cx="125" cy="267" fill="black" id="svg_228" r="3"/>
  <circle cx="115" cy="267" fill="black" id="svg_229" r="3"/>
  <circle cx="115" cy="277" fill="black" id="svg_230" r="3"/>
  <circle cx="115" cy="286" fill="black" id="svg_231" r="3"/>
  <circle cx="125" cy="295" fill="black" id="svg_232" r="3"/>
  <circle cx="125" cy="305" fill="black" id="svg_233" r="3"/>
  <circle cx="125" cy="277" fill="black" id="svg_234" r="3"/>
  <circle cx="115" cy="257" fill="black" id="svg_235" r="3"/>
  <circle cx="115" cy="248" fill="black" id="svg_236" r="3"/>
  <circle cx="143" cy="248" fill="black" id="svg_237" r="3"/>
  <circle cx="229" cy="248" fill="black" id="svg_238" r="3"/>
  <circle cx="248" cy="248" fill="black" id="svg_239" r="3"/>
  <circle cx="229" cy="257" fill="black" id="svg_240" r="3"/>
  <circle cx="219" cy="267" fill="black" id="svg_241" r="3"/>
  <circle cx="229" cy="267" fill="black" id="svg_242" r="3"/>
  <circle cx="239" cy="267" fill="black" id="svg_243" r="3"/>
  <circle cx="249" cy="267" fill="black" id="svg_244" r="3"/>
  <circle cx="259" cy="267" fill="black" id="svg_245" r="3"/>
  <circle cx="269" cy="267" fill="black" id="svg_246" r="3"/>
  <circle cx="279" cy="267" fill="black" id="svg_247" r="3"/>
  <circle cx="286" cy="277" fill="black" id="svg_248" r="3"/>
  <circle cx="286" cy="286" fill="black" id="svg_249" r="3"/>
  <circle cx="276" cy="286" fill="black" id="svg_250" r="3"/>
  <circle cx="267" cy="286" fill="black" id="svg_251" r="3"/>
  <circle cx="258" cy="286" fill="black" id="svg_252" r="3"/>
  <circle cx="249" cy="286" fill="black" id="svg_253" r="3"/>
  <circle cx="249" cy="295" fill="black" id="svg_254" r="3"/>
  <circle cx="229" cy="295" fill="black" id="svg_255" r="3"/>
  <circle cx="219" cy="295" fill="black" id="svg_256" r="3"/>
  <circle cx="219" cy="285" fill="black" id="svg_257" r="3"/>
  <circle cx="239" cy="304" fill="black" id="svg_258" r="3"/>
  <circle cx="286" cy="295" fill="black" id="svg_259" r="3"/>
  <circle cx="296" cy="295" fill="black" id="svg_260" r="3"/>
  <circle cx="276" cy="295" fill="black" id="svg_261" r="3"/>
  <circle cx="305" cy="277" fill="black" id="svg_262" r="3"/>
  <circle cx="248" cy="229" fill="black" id="svg_263" r="3"/>
  <circle cx="267" cy="229" fill="black" id="svg_264" r="3"/>
  <circle cx="267" cy="238" fill="black" id="svg_265" r="3"/>
  <circle cx="267" cy="248" fill="black" id="svg_266" r="3"/>
  <circle cx="267" cy="257" fill="black" id="svg_267" r="3"/>
  <circle cx="220" cy="171" fill="black" id="svg_268" r="3"/>
  <circle cx="239" cy="172" fill="black" id="svg_269" r="3"/>
  <circle cx="249" cy="143" fill="black" id="svg_270" r="3"/>
  <circle cx="249" cy="172" fill="black" id="svg_271" r="3"/>
  <circle cx="210" cy="143" fill="black" id="svg_272" r="3"/>
  <circle cx="210" cy="152" fill="black" id="svg_273" r="3"/>
  <circle cx="239" cy="152" fill="black" id="svg_274" r="3"/>
  <circle cx="239" cy="162" fill="black" id="svg_275" r="3"/>
  <circle cx="201" cy="143" fill="black" id="svg_276" r="3"/>
  <circle cx="201" cy="152" fill="black" id="svg_277" r="3"/>
  <circle cx="192" cy="127" fill="black" id="svg_278" r="3"/>
  <circle cx="200" cy="127" fill="black" id="svg_279" r="3"/>
  <circle cx="210" cy="127" fill="black" id="svg_280" r="3"/>
  <circle cx="163" cy="57" fill="black" id="svg_281" r="3"/>
  <circle cx="163" cy="66" fill="black" id="svg_282" r="3"/>
  <circle cx="125" cy="67" fill="black" id="svg_283" r="3"/>
  <circle cx="134" cy="57" fill="black" id="svg_284" r="3"/>
  <circle cx="143" cy="57" fill="black" id="svg_285" r="3"/>
  <circle cx="143" cy="67" fill="black" id="svg_286" r="3"/>
  <circle cx="143" cy="87" fill="black" id="svg_287" r="3"/>
  <circle cx="153" cy="97" fill="black" id="svg_288" r="3"/>
  <circle cx="134" cy="97" fill="black" id="svg_289" r="3"/>
  <circle cx="143" cy="105" fill="black" id="svg_290" r="3"/>
  <circle cx="153" cy="105" fill="black" id="svg_291" r="3"/>
  <circle cx="143" cy="115" fill="black" id="svg_292" r="3"/>
  <circle cx="153" cy="115" fill="black" id="svg_293" r="3"/>
  <circle cx="153" cy="124" fill="black" id="svg_294" r="3"/>
  <circle cx="134" cy="124" fill="black" id="svg_295" r="3"/>
  <circle cx="125" cy="77" fill="black" id="svg_296" r="3"/>
  <circle cx="125" cy="87" fill="black" id="svg_297" r="3"/>
  <circle cx="115" cy="57" fill="black" id="svg_298" r="3"/>
  <circle cx="115" cy="67" fill="black" id="svg_299" r="3"/>
  <circle cx="115" cy="77" fill="black" id="svg_300" r="3"/>
  <circle cx="115" cy="87" fill="black" id="svg_301" r="3"/>
  <circle cx="115" cy="97" fill="black" id="svg_302" r="3"/>
 </g>
</svg>